<mxfile host="app.diagrams.net" modified="2023-02-23T17:17:31.165Z" agent="5.0 (X11)" etag="aTaDmEtrOTPwCoxFTZ2E" version="20.8.23" type="github">
  <diagram name="PÃ¡gina-1" id="baXtOwrCh4IEvoJjOM4s">
    <mxGraphModel dx="723" dy="550" grid="1" gridSize="10" guides="1" tooltips="1" connect="1" arrows="1" fold="1" page="1" pageScale="1" pageWidth="827" pageHeight="1169" math="0" shadow="0">
      <root>
        <mxCell id="0" />
        <mxCell id="1" parent="0" />
        <mxCell id="4ScxBSEJoBfUc2GUGg9C-21" value="&lt;div&gt;0:00 as 5:59&lt;/div&gt;" style="rounded=0;whiteSpace=wrap;html=1;strokeColor=#141414;strokeWidth=0.5;" parent="1" vertex="1">
          <mxGeometry x="40" y="240" width="120" height="40" as="geometry" />
        </mxCell>
        <mxCell id="4ScxBSEJoBfUc2GUGg9C-22" value="&lt;div&gt;6:00 as 11:59&lt;/div&gt;" style="rounded=0;whiteSpace=wrap;html=1;strokeWidth=0.5;" parent="1" vertex="1">
          <mxGeometry x="160" y="240" width="120" height="40" as="geometry" />
        </mxCell>
        <mxCell id="4ScxBSEJoBfUc2GUGg9C-23" value="&lt;div&gt;12:00 as 17:59&lt;/div&gt;" style="rounded=0;whiteSpace=wrap;html=1;strokeWidth=0.5;" parent="1" vertex="1">
          <mxGeometry x="280" y="240" width="120" height="40" as="geometry" />
        </mxCell>
        <mxCell id="4ScxBSEJoBfUc2GUGg9C-24" value="&lt;div&gt;18:00 as 23:59&lt;/div&gt;" style="rounded=0;whiteSpace=wrap;html=1;strokeWidth=0.5;" parent="1" vertex="1">
          <mxGeometry x="400" y="240" width="120" height="40" as="geometry" />
        </mxCell>
        <mxCell id="4ScxBSEJoBfUc2GUGg9C-25" value="&lt;font style=&quot;font-size: 8px;&quot;&gt;22h&lt;/font&gt;" style="rounded=0;whiteSpace=wrap;html=1;strokeColor=#141414;strokeWidth=0.2;fillColor=#B3E8FF;fontSize=8;" parent="1" vertex="1">
          <mxGeometry x="480" y="290" width="20" height="20" as="geometry" />
        </mxCell>
        <mxCell id="4ScxBSEJoBfUc2GUGg9C-26" value="database-01-pa-cst" style="rounded=0;whiteSpace=wrap;html=1;strokeColor=#141414;strokeWidth=0.2;fillColor=#B3E8FF;" parent="1" vertex="1">
          <mxGeometry x="540" y="290" width="160" height="20" as="geometry" />
        </mxCell>
        <mxCell id="4ScxBSEJoBfUc2GUGg9C-27" value="&lt;div&gt;22h&lt;/div&gt;" style="rounded=0;whiteSpace=wrap;html=1;strokeColor=#141414;strokeWidth=0.2;fillColor=#ABFFEB;fontSize=8;" parent="1" vertex="1">
          <mxGeometry x="480" y="320" width="20" height="20" as="geometry" />
        </mxCell>
        <mxCell id="4ScxBSEJoBfUc2GUGg9C-29" value="database-teste-01-pa-cst" style="rounded=0;whiteSpace=wrap;html=1;strokeColor=#141414;strokeWidth=0.2;fillColor=#ABFFEB;" parent="1" vertex="1">
          <mxGeometry x="540" y="320" width="160" height="20" as="geometry" />
        </mxCell>
        <mxCell id="4ScxBSEJoBfUc2GUGg9C-30" value="0h" style="rounded=0;whiteSpace=wrap;html=1;strokeColor=#141414;strokeWidth=0.2;fillColor=#A1FFA7;fontSize=8;" parent="1" vertex="1">
          <mxGeometry x="40" y="350" width="40" height="20" as="geometry" />
        </mxCell>
        <mxCell id="4ScxBSEJoBfUc2GUGg9C-31" value="ftp01-pa-cst" style="rounded=0;whiteSpace=wrap;html=1;strokeColor=#141414;strokeWidth=0.2;fillColor=#A1FFA7;" parent="1" vertex="1">
          <mxGeometry x="540" y="350" width="160" height="20" as="geometry" />
        </mxCell>
        <mxCell id="4ScxBSEJoBfUc2GUGg9C-32" value="" style="endArrow=none;html=1;rounded=0;exitX=1;exitY=0.5;exitDx=0;exitDy=0;entryX=0;entryY=0.5;entryDx=0;entryDy=0;strokeColor=#A1FFA7;strokeWidth=2;" parent="1" source="4ScxBSEJoBfUc2GUGg9C-30" target="4ScxBSEJoBfUc2GUGg9C-31" edge="1">
          <mxGeometry width="50" height="50" relative="1" as="geometry">
            <mxPoint x="240" y="380" as="sourcePoint" />
            <mxPoint x="290" y="330" as="targetPoint" />
          </mxGeometry>
        </mxCell>
        <mxCell id="4ScxBSEJoBfUc2GUGg9C-33" value="" style="endArrow=none;html=1;rounded=0;strokeColor=#ABFFEB;entryX=0;entryY=0.5;entryDx=0;entryDy=0;exitX=1;exitY=0.5;exitDx=0;exitDy=0;strokeWidth=2;" parent="1" source="4ScxBSEJoBfUc2GUGg9C-27" target="4ScxBSEJoBfUc2GUGg9C-29" edge="1">
          <mxGeometry width="50" height="50" relative="1" as="geometry">
            <mxPoint x="400" y="340" as="sourcePoint" />
            <mxPoint x="450" y="290" as="targetPoint" />
          </mxGeometry>
        </mxCell>
        <mxCell id="4ScxBSEJoBfUc2GUGg9C-35" value="" style="endArrow=none;html=1;rounded=0;strokeColor=#B3E8FF;entryX=0;entryY=0.5;entryDx=0;entryDy=0;exitX=1;exitY=0.5;exitDx=0;exitDy=0;strokeWidth=2;" parent="1" source="4ScxBSEJoBfUc2GUGg9C-25" target="4ScxBSEJoBfUc2GUGg9C-26" edge="1">
          <mxGeometry width="50" height="50" relative="1" as="geometry">
            <mxPoint x="410" y="290" as="sourcePoint" />
            <mxPoint x="460" y="240" as="targetPoint" />
          </mxGeometry>
        </mxCell>
        <mxCell id="4ScxBSEJoBfUc2GUGg9C-38" value="Seg" style="rounded=0;whiteSpace=wrap;html=1;strokeColor=#141414;strokeWidth=0.5;" parent="1" vertex="1">
          <mxGeometry x="40" y="40" width="60" height="40" as="geometry" />
        </mxCell>
        <mxCell id="4ScxBSEJoBfUc2GUGg9C-39" value="Ter" style="rounded=0;whiteSpace=wrap;html=1;strokeColor=#141414;strokeWidth=0.5;" parent="1" vertex="1">
          <mxGeometry x="100" y="40" width="60" height="40" as="geometry" />
        </mxCell>
        <mxCell id="4ScxBSEJoBfUc2GUGg9C-40" value="Qua" style="rounded=0;whiteSpace=wrap;html=1;strokeColor=#141414;strokeWidth=0.5;" parent="1" vertex="1">
          <mxGeometry x="160" y="40" width="60" height="40" as="geometry" />
        </mxCell>
        <mxCell id="4ScxBSEJoBfUc2GUGg9C-41" value="Qui" style="rounded=0;whiteSpace=wrap;html=1;strokeColor=#141414;strokeWidth=0.5;" parent="1" vertex="1">
          <mxGeometry x="220" y="40" width="60" height="40" as="geometry" />
        </mxCell>
        <mxCell id="4ScxBSEJoBfUc2GUGg9C-42" value="Sex" style="rounded=0;whiteSpace=wrap;html=1;strokeColor=#141414;strokeWidth=0.5;" parent="1" vertex="1">
          <mxGeometry x="280" y="40" width="60" height="40" as="geometry" />
        </mxCell>
        <mxCell id="4ScxBSEJoBfUc2GUGg9C-43" value="Sab" style="rounded=0;whiteSpace=wrap;html=1;strokeColor=#141414;strokeWidth=0.5;" parent="1" vertex="1">
          <mxGeometry x="340" y="40" width="60" height="40" as="geometry" />
        </mxCell>
        <mxCell id="4ScxBSEJoBfUc2GUGg9C-44" value="Dom" style="rounded=0;whiteSpace=wrap;html=1;strokeColor=#141414;strokeWidth=0.5;" parent="1" vertex="1">
          <mxGeometry x="400" y="40" width="60" height="40" as="geometry" />
        </mxCell>
        <mxCell id="4ScxBSEJoBfUc2GUGg9C-45" value="Completo" style="rounded=0;whiteSpace=wrap;html=1;strokeColor=#141414;strokeWidth=0.2;fillColor=#A1FFA7;" parent="1" vertex="1">
          <mxGeometry x="40" y="150" width="420" height="20" as="geometry" />
        </mxCell>
        <mxCell id="4ScxBSEJoBfUc2GUGg9C-46" value="ftp01-pa-cst" style="rounded=0;whiteSpace=wrap;html=1;strokeColor=#141414;strokeWidth=0.2;fillColor=#A1FFA7;" parent="1" vertex="1">
          <mxGeometry x="480" y="150" width="160" height="20" as="geometry" />
        </mxCell>
        <mxCell id="4ScxBSEJoBfUc2GUGg9C-47" value="" style="endArrow=none;html=1;rounded=0;exitX=1;exitY=0.5;exitDx=0;exitDy=0;entryX=0;entryY=0.5;entryDx=0;entryDy=0;strokeColor=#A1FFA7;strokeWidth=2;" parent="1" source="4ScxBSEJoBfUc2GUGg9C-45" target="4ScxBSEJoBfUc2GUGg9C-46" edge="1">
          <mxGeometry width="50" height="50" relative="1" as="geometry">
            <mxPoint x="180" y="180" as="sourcePoint" />
            <mxPoint x="230" y="130" as="targetPoint" />
          </mxGeometry>
        </mxCell>
        <mxCell id="4ScxBSEJoBfUc2GUGg9C-48" value="Completo" style="rounded=0;whiteSpace=wrap;html=1;strokeColor=#141414;strokeWidth=0.2;fillColor=#ABFFEB;" parent="1" vertex="1">
          <mxGeometry x="400" y="120" width="60" height="20" as="geometry" />
        </mxCell>
        <mxCell id="4ScxBSEJoBfUc2GUGg9C-49" value="database-teste-01-pa-cst" style="rounded=0;whiteSpace=wrap;html=1;strokeColor=#141414;strokeWidth=0.2;fillColor=#ABFFEB;" parent="1" vertex="1">
          <mxGeometry x="480" y="120" width="160" height="20" as="geometry" />
        </mxCell>
        <mxCell id="4ScxBSEJoBfUc2GUGg9C-50" value="" style="endArrow=none;html=1;rounded=0;strokeColor=#ABFFEB;entryX=0;entryY=0.5;entryDx=0;entryDy=0;exitX=1;exitY=0.5;exitDx=0;exitDy=0;strokeWidth=2;" parent="1" source="4ScxBSEJoBfUc2GUGg9C-48" target="4ScxBSEJoBfUc2GUGg9C-49" edge="1">
          <mxGeometry width="50" height="50" relative="1" as="geometry">
            <mxPoint x="340" y="140" as="sourcePoint" />
            <mxPoint x="390" y="90" as="targetPoint" />
          </mxGeometry>
        </mxCell>
        <mxCell id="4ScxBSEJoBfUc2GUGg9C-51" value="Completo" style="rounded=0;whiteSpace=wrap;html=1;strokeColor=#141414;strokeWidth=0.2;fillColor=#B3E8FF;" parent="1" vertex="1">
          <mxGeometry x="400" y="90" width="60" height="20" as="geometry" />
        </mxCell>
        <mxCell id="4ScxBSEJoBfUc2GUGg9C-52" value="database-01-pa-cst" style="rounded=0;whiteSpace=wrap;html=1;strokeColor=#141414;strokeWidth=0.2;fillColor=#B3E8FF;" parent="1" vertex="1">
          <mxGeometry x="480" y="90" width="160" height="20" as="geometry" />
        </mxCell>
        <mxCell id="4ScxBSEJoBfUc2GUGg9C-53" value="" style="endArrow=none;html=1;rounded=0;strokeColor=#B3E8FF;entryX=0;entryY=0.5;entryDx=0;entryDy=0;exitX=1;exitY=0.5;exitDx=0;exitDy=0;strokeWidth=2;" parent="1" source="4ScxBSEJoBfUc2GUGg9C-51" target="4ScxBSEJoBfUc2GUGg9C-52" edge="1">
          <mxGeometry width="50" height="50" relative="1" as="geometry">
            <mxPoint x="350" y="90" as="sourcePoint" />
            <mxPoint x="400" y="40" as="targetPoint" />
          </mxGeometry>
        </mxCell>
        <mxCell id="4ScxBSEJoBfUc2GUGg9C-54" value="Incremental" style="rounded=0;whiteSpace=wrap;html=1;strokeColor=#141414;strokeWidth=0.2;fillColor=#ABFFEB;" parent="1" vertex="1">
          <mxGeometry x="40" y="120" width="360" height="20" as="geometry" />
        </mxCell>
        <mxCell id="4ScxBSEJoBfUc2GUGg9C-55" value="Incremental" style="rounded=0;whiteSpace=wrap;html=1;strokeColor=#141414;strokeWidth=0.2;fillColor=#B3E8FF;" parent="1" vertex="1">
          <mxGeometry x="40" y="90" width="360" height="20" as="geometry" />
        </mxCell>
        <mxCell id="SSgZiEwy1ksIux-Pg7zx-1" value="&lt;font style=&quot;font-size: 8px;&quot;&gt;17h&lt;/font&gt;" style="rounded=0;whiteSpace=wrap;html=1;strokeColor=#141414;strokeWidth=0.2;fillColor=#FFC9B3;" parent="1" vertex="1">
          <mxGeometry x="380" y="380" width="20" height="20" as="geometry" />
        </mxCell>
        <mxCell id="SSgZiEwy1ksIux-Pg7zx-2" value="janela de limpeza" style="rounded=0;whiteSpace=wrap;html=1;strokeColor=#141414;strokeWidth=0.2;fillColor=#FFC9B3;" parent="1" vertex="1">
          <mxGeometry x="540" y="380" width="160" height="20" as="geometry" />
        </mxCell>
        <mxCell id="SSgZiEwy1ksIux-Pg7zx-3" value="" style="endArrow=none;html=1;rounded=0;strokeColor=#FFC9B3;entryX=0;entryY=0.5;entryDx=0;entryDy=0;strokeWidth=2;exitX=1;exitY=0.5;exitDx=0;exitDy=0;" parent="1" source="SSgZiEwy1ksIux-Pg7zx-1" target="SSgZiEwy1ksIux-Pg7zx-2" edge="1">
          <mxGeometry width="50" height="50" relative="1" as="geometry">
            <mxPoint x="400" y="390" as="sourcePoint" />
            <mxPoint x="530" y="389.6600000000001" as="targetPoint" />
          </mxGeometry>
        </mxCell>
        <mxCell id="SSgZiEwy1ksIux-Pg7zx-4" value="" style="rounded=0;whiteSpace=wrap;html=1;strokeColor=#141414;strokeWidth=0.2;fillColor=#FFC9B3;" parent="1" vertex="1">
          <mxGeometry x="40" y="180" width="420" height="20" as="geometry" />
        </mxCell>
        <mxCell id="SSgZiEwy1ksIux-Pg7zx-5" value="janela de limpeza" style="rounded=0;whiteSpace=wrap;html=1;strokeColor=#141414;strokeWidth=0.2;fillColor=#FFC9B3;" parent="1" vertex="1">
          <mxGeometry x="480" y="180" width="160" height="20" as="geometry" />
        </mxCell>
        <mxCell id="SSgZiEwy1ksIux-Pg7zx-6" value="" style="endArrow=none;html=1;rounded=0;strokeColor=#FFC9B3;entryX=0;entryY=0.5;entryDx=0;entryDy=0;strokeWidth=2;exitX=1;exitY=0.5;exitDx=0;exitDy=0;" parent="1" source="SSgZiEwy1ksIux-Pg7zx-4" target="SSgZiEwy1ksIux-Pg7zx-5" edge="1">
          <mxGeometry width="50" height="50" relative="1" as="geometry">
            <mxPoint x="340" y="190" as="sourcePoint" />
            <mxPoint x="470" y="189.66000000000008" as="targetPoint" />
          </mxGeometry>
        </mxCell>
      </root>
    </mxGraphModel>
  </diagram>
</mxfile>
